<svg width="24" height="24" viewBox="0 0 24 24" fill="none" xmlns="http://www.w3.org/2000/svg">
<path d="M13 3C13.353 3 13.6761 3.18574 13.8555 3.48242L13.916 3.59961L20.6533 19H21C21.5523 19 22 19.4477 22 20C22 20.5128 21.6135 20.9354 21.1162 20.9932L21 21H14C13.4477 21 13 20.5523 13 20C13 19.4872 13.3865 19.0646 13.8838 19.0068L14 19H14.4912L13.2207 16H7.56836L6.44336 19H7C7.55228 19 8 19.4477 8 20C8 20.5128 7.61355 20.9354 7.11621 20.9932L7 21H4C3.44772 21 3 20.5523 3 20C3 19.4872 3.38645 19.0646 3.88379 19.0068L4 19H4.30664L10.0635 3.64844C10.1952 3.29749 10.5106 3.05335 10.876 3.00781L11 3H13ZM11.2432 6.19922L16.6621 19H18.4707L12.3447 5H11.6934L11.2432 6.19922ZM8.31836 14H12.374L10.2227 8.91895L8.31836 14Z" fill="black"/>
</svg>
