<svg width="24" height="24" viewBox="0 0 24 24" fill="none" xmlns="http://www.w3.org/2000/svg">
<path fill-rule="evenodd" clip-rule="evenodd" d="M8.49998 13.0004C9.88069 13.0004 11 14.1197 11 15.5004V20.5004C10.9998 21.8809 9.88057 23.0004 8.49998 23.0004H3.49998C2.11949 23.0003 1.00019 21.8809 0.999983 20.5004V15.5004C0.999983 14.1197 2.11936 13.0005 3.49998 13.0004H8.49998ZM2.99998 21.0004H8.99998V15.0004H2.99998V21.0004Z" fill="black"/>
<path fill-rule="evenodd" clip-rule="evenodd" d="M18 13.0004C20.7614 13.0004 23 15.239 23 18.0004C22.9998 20.7616 20.7613 23.0004 18 23.0004C15.2388 23.0003 13.0002 20.7616 13 18.0004C13 15.239 15.2386 13.0005 18 13.0004ZM18 15.0004C16.3432 15.0005 15 16.3436 15 18.0004C15.0002 19.657 16.3433 21.0003 18 21.0004C19.6567 21.0004 20.9998 19.6571 21 18.0004C21 16.3435 19.6568 15.0004 18 15.0004Z" fill="black"/>
<path fill-rule="evenodd" clip-rule="evenodd" d="M6.85838 1.27089C7.99316 0.877739 9.26801 1.10931 10.1465 1.9369C10.9859 2.72814 11.2908 3.90489 10.9824 5.00331L10.9726 5.03456L10.9433 5.12538L10.9346 5.15272L10.9258 5.17909L10.918 5.19374L8.93553 11.0736L2.90721 9.49843L2.89842 9.49647L2.88963 9.49354L2.76463 9.45839L2.73631 9.45058C1.64397 9.10904 0.82264 8.20731 0.6201 7.06776C0.408388 5.87545 0.916702 4.67775 1.87303 3.94472C2.69941 3.31146 3.77647 3.08987 4.76854 3.35097C5.09875 2.38274 5.87752 1.61087 6.85838 1.27089ZM8.7744 3.39296C8.47376 3.10973 7.99182 2.99448 7.51268 3.16054C7.03145 3.32743 6.69477 3.7308 6.61522 4.1703C6.43507 5.16403 5.3576 5.74287 4.42967 5.34218C4.01879 5.16479 3.49455 5.22164 3.08885 5.53261C2.68532 5.84218 2.51648 6.31042 2.58885 6.71815C2.65622 7.09696 2.92761 7.41223 3.32811 7.53944L3.41307 7.56288L7.63573 8.6664L9.03221 4.53065L9.03905 4.5121L9.0449 4.49452L9.04783 4.48671L9.05565 4.46132C9.16902 4.05641 9.05457 3.65708 8.7744 3.39296Z" fill="black"/>
<path fill-rule="evenodd" clip-rule="evenodd" d="M16.5928 1.55995C17.0194 0.814059 18.0948 0.814105 18.5215 1.55995L22.9668 9.33827C23.3894 10.0788 22.8547 11.0002 22.0019 11.0004H13.1123C12.2596 11 11.7256 10.0788 12.1484 9.33827L16.5928 1.55995ZM14.7002 9.07655H20.414L17.5576 4.07655L14.7002 9.07655Z" fill="black"/>
</svg>
